<svg width="201" height="199" viewBox="0 0 201 199" fill="none" xmlns="http://www.w3.org/2000/svg">
<path d="M100.5 0L123.73 43.9767L171.564 29.1429L156.581 76.5015L201 99.5L156.581 122.499L171.564 169.857L123.73 155.023L100.5 199L77.2704 155.023L29.4358 169.857L44.4187 122.499L0 99.5L44.4187 76.5015L29.4358 29.1429L77.2704 43.9767L100.5 0Z" fill="#B9C400"/>
<path d="M62.3601 116.348C60.6035 116.348 59.0374 116.025 57.6619 115.379C56.2947 114.732 55.2093 113.842 54.4055 112.706C53.6018 111.571 53.1834 110.27 53.1502 108.804H58.3704C58.4284 109.79 58.8427 110.589 59.6133 111.202C60.3839 111.816 61.2995 112.122 62.3601 112.122C63.2053 112.122 63.951 111.936 64.5973 111.563C65.2519 111.182 65.7615 110.656 66.1261 109.984C66.4989 109.305 66.6854 108.526 66.6854 107.648C66.6854 106.753 66.4948 105.966 66.1136 105.286C65.7408 104.607 65.2229 104.076 64.56 103.695C63.8971 103.314 63.139 103.119 62.2855 103.111C61.5398 103.111 60.8147 103.264 60.1104 103.571C59.4144 103.878 58.8717 104.296 58.4822 104.826L53.6971 103.969L54.9027 90.5455H70.4638V94.9453H59.3398L58.6811 101.321H58.8303C59.2777 100.692 59.953 100.17 60.8562 99.7553C61.7594 99.341 62.7702 99.1339 63.8888 99.1339C65.4218 99.1339 66.7889 99.4943 67.9904 100.215C69.1919 100.936 70.1406 101.926 70.8366 103.186C71.5327 104.437 71.8765 105.879 71.8683 107.511C71.8765 109.226 71.4788 110.751 70.6751 112.085C69.8796 113.411 68.7652 114.455 67.3317 115.217C65.9065 115.971 64.2493 116.348 62.3601 116.348ZM84.8317 90.1974C86.1409 90.1974 87.4003 90.417 88.6101 90.8562C89.8281 91.2953 90.9136 91.9955 91.8665 92.9567C92.8277 93.9179 93.5858 95.1939 94.141 96.7848C94.7044 98.3674 94.9903 100.31 94.9986 102.614C94.9986 104.777 94.7541 106.707 94.2653 108.406C93.7847 110.096 93.0928 111.534 92.1896 112.719C91.2865 113.904 90.1969 114.807 88.9208 115.428C87.6448 116.041 86.2196 116.348 84.6452 116.348C82.9466 116.348 81.4469 116.021 80.146 115.366C78.8451 114.703 77.7969 113.804 77.0014 112.669C76.2143 111.526 75.7378 110.241 75.5721 108.816H80.8793C81.0864 109.744 81.5214 110.465 82.1843 110.979C82.8472 111.484 83.6675 111.737 84.6452 111.737C86.3024 111.737 87.5619 111.016 88.4237 109.574C89.2854 108.124 89.7204 106.14 89.7287 103.621H89.5547C89.1735 104.366 88.6598 105.009 88.0135 105.547C87.3672 106.078 86.6256 106.488 85.7887 106.778C84.9601 107.068 84.0777 107.213 83.1413 107.213C81.6416 107.213 80.3034 106.861 79.1268 106.156C77.9502 105.452 77.0221 104.482 76.3427 103.248C75.6632 102.013 75.3235 100.605 75.3235 99.022C75.3152 97.3151 75.7088 95.7946 76.5043 94.4606C77.2997 93.1265 78.41 92.0825 79.8352 91.3285C81.2687 90.5662 82.9342 90.1892 84.8317 90.1974ZM84.869 94.4233C84.0321 94.4233 83.2863 94.6222 82.6317 95.0199C81.9854 95.4176 81.4717 95.9521 81.0906 96.6232C80.7177 97.2944 80.5354 98.0443 80.5437 98.8729C80.5437 99.7098 80.726 100.464 81.0906 101.135C81.4634 101.798 81.9689 102.328 82.6069 102.726C83.2532 103.115 83.9906 103.31 84.8192 103.31C85.4407 103.31 86.0166 103.194 86.5469 102.962C87.0772 102.73 87.5371 102.411 87.9265 102.005C88.3242 101.591 88.6349 101.114 88.8587 100.576C89.0824 100.037 89.1942 99.4653 89.1942 98.8604C89.186 98.0567 88.9954 97.3192 88.6225 96.6481C88.2496 95.9769 87.7359 95.4383 87.0813 95.0323C86.4267 94.6263 85.6893 94.4233 84.869 94.4233ZM108.708 116.559C106.57 116.551 104.73 116.025 103.189 114.981C101.656 113.937 100.476 112.425 99.647 110.444C98.8267 108.464 98.4207 106.082 98.429 103.298C98.429 100.522 98.8391 98.1561 99.6594 96.2006C100.488 94.2451 101.669 92.7578 103.202 91.7386C104.743 90.7112 106.578 90.1974 108.708 90.1974C110.837 90.1974 112.668 90.7112 114.201 91.7386C115.743 92.7661 116.927 94.2576 117.756 96.2131C118.585 98.1603 118.995 100.522 118.987 103.298C118.987 106.09 118.572 108.476 117.744 110.457C116.923 112.437 115.747 113.949 114.214 114.993C112.681 116.037 110.846 116.559 108.708 116.559ZM108.708 112.097C110.166 112.097 111.33 111.364 112.2 109.897C113.07 108.431 113.501 106.231 113.493 103.298C113.493 101.367 113.294 99.7595 112.896 98.4751C112.507 97.1908 111.952 96.2255 111.231 95.5792C110.518 94.9329 109.677 94.6097 108.708 94.6097C107.258 94.6097 106.098 95.3348 105.228 96.7848C104.358 98.2348 103.918 100.406 103.91 103.298C103.91 105.253 104.105 106.885 104.494 108.195C104.892 109.496 105.451 110.473 106.172 111.128C106.893 111.774 107.738 112.097 108.708 112.097ZM147.729 99.3079L146.498 102.03H129.881L130.887 99.3079H147.729ZM145.355 104.516L144 107.3H129.881L130.887 104.516H145.355ZM150.96 92.5092L148.971 96.7599C148.64 96.5279 148.238 96.2752 147.766 96.0018C147.302 95.7201 146.767 95.4839 146.162 95.2933C145.566 95.0945 144.903 94.995 144.174 94.995C143.022 94.995 142.019 95.285 141.166 95.8651C140.313 96.4451 139.65 97.3482 139.177 98.5746C138.713 99.8009 138.481 101.375 138.481 103.298C138.481 105.237 138.713 106.815 139.177 108.033C139.65 109.243 140.313 110.134 141.166 110.705C142.019 111.269 143.022 111.55 144.174 111.55C144.903 111.55 145.566 111.455 146.162 111.265C146.759 111.074 147.281 110.846 147.729 110.581C148.184 110.316 148.565 110.071 148.872 109.848L150.885 114.098C149.982 114.844 148.959 115.408 147.816 115.789C146.672 116.162 145.458 116.348 144.174 116.348C142.003 116.348 140.081 115.834 138.407 114.807C136.741 113.771 135.436 112.284 134.492 110.345C133.547 108.398 133.075 106.049 133.075 103.298C133.075 100.555 133.547 98.2058 134.492 96.2504C135.436 94.2949 136.741 92.7992 138.407 91.7635C140.081 90.7195 142.003 90.1974 144.174 90.1974C145.508 90.1974 146.742 90.3963 147.878 90.794C149.013 91.1918 150.04 91.7635 150.96 92.5092Z" fill="#262C27"/>
</svg>
